<?xml version="1.0" standalone="no"?>
<!DOCTYPE svg PUBLIC "-//W3C//DTD SVG 20010904//EN"
 "http://www.w3.org/TR/2001/REC-SVG-20010904/DTD/svg10.dtd">
<svg version="1.0" xmlns="http://www.w3.org/2000/svg"
 width="330.000000pt" height="150.000000pt" viewBox="0 0 330.000000 150.000000"
 preserveAspectRatio="xMidYMid meet">

<g transform="translate(0.000000,150.000000) scale(0.100000,-0.100000)"
fill="#000000" stroke="none">
<path d="M1010 1081 c-36 -20 -110 -61 -165 -91 l-101 -53 -161 87 c-88 47
-163 86 -167 86 -3 0 -6 -39 -6 -86 l0 -86 -85 47 -85 46 0 -199 0 -199 170
-91 170 -91 188 101 c103 55 215 116 250 135 l62 34 0 199 c0 110 -1 200 -2
199 -2 0 -32 -17 -68 -38z m-404 -115 l138 -75 76 41 c41 22 108 59 148 80
l72 40 0 -155 0 -155 -117 -62 c-65 -35 -131 -70 -148 -80 l-30 -17 -150 81
-150 81 -3 154 c-2 127 0 152 11 148 8 -3 76 -39 153 -81z m-253 -41 l57 -30
0 -87 0 -87 43 -24 c23 -14 89 -49 145 -79 l104 -55 -58 -32 c-32 -17 -63 -30
-69 -29 -5 2 -74 37 -152 78 l-143 75 0 153 c0 85 4 152 8 150 5 -1 34 -16 65
-33z"/>
<path d="M1300 830 c0 -92 1 -100 19 -100 16 0 20 8 23 38 3 34 6 37 33 37 27
0 30 -3 33 -37 3 -30 7 -38 23 -38 18 0 19 8 19 100 0 92 -1 100 -19 100 -16
0 -20 -8 -23 -37 -3 -35 -6 -38 -33 -38 -27 0 -30 3 -33 38 -3 29 -7 37 -23
37 -18 0 -19 -8 -19 -100z"/>
<path d="M1505 905 c-20 -19 -25 -34 -25 -73 0 -70 27 -102 85 -102 58 0 85
32 85 102 0 62 -31 98 -85 98 -25 0 -44 -8 -60 -25z m84 -29 c7 -8 11 -31 9
-52 -6 -73 -68 -68 -68 5 0 54 32 79 59 47z"/>
<path d="M1680 831 l0 -101 26 0 c27 0 27 0 20 63 l-6 62 19 -42 c26 -57 53
-58 75 -3 9 22 17 40 19 40 2 0 1 -27 -1 -60 -4 -59 -4 -60 22 -60 l27 0 -3
98 c-3 88 -5 97 -23 100 -15 2 -27 -11 -48 -50 l-29 -51 -26 49 c-18 33 -34
50 -49 52 -23 3 -23 1 -23 -97z"/>
<path d="M1917 924 c-4 -4 -7 -49 -7 -101 l0 -93 70 0 c68 0 70 1 70 25 0 23
-4 25 -45 25 -33 0 -45 4 -45 15 0 10 11 15 35 15 28 0 35 4 35 20 0 16 -7 20
-35 20 -24 0 -35 5 -35 15 0 11 12 15 46 15 41 0 45 2 42 23 -3 20 -9 22 -63
25 -34 2 -64 0 -68 -4z"/>
<path d="M2095 905 c-20 -19 -25 -34 -25 -73 0 -70 27 -102 85 -102 58 0 85
32 85 102 0 62 -31 98 -85 98 -25 0 -44 -8 -60 -25z m84 -29 c7 -8 11 -31 9
-52 -6 -73 -68 -68 -68 5 0 54 32 79 59 47z"/>
<path d="M2270 830 l0 -100 60 0 c47 0 64 4 80 20 24 24 26 53 5 70 -11 9 -13
16 -5 24 17 17 11 54 -12 70 -14 10 -44 16 -75 16 l-53 0 0 -100z m95 40 c0
-8 -10 -16 -22 -18 -18 -3 -23 2 -23 18 0 16 5 21 23 18 12 -2 22 -10 22 -18z
m11 -71 c8 -13 -13 -29 -38 -29 -11 0 -18 8 -18 20 0 15 7 20 24 20 14 0 28
-5 32 -11z"/>
<path d="M2460 831 c0 -93 1 -101 19 -101 15 0 21 8 23 32 4 44 24 46 45 4 12
-26 23 -36 40 -36 27 0 29 10 8 49 -13 26 -13 30 0 41 19 16 19 60 1 85 -10
13 -30 20 -75 23 l-61 4 0 -101z m98 32 c-2 -12 -12 -18 -28 -18 -16 0 -26 6
-28 18 -3 13 3 17 28 17 25 0 31 -4 28 -17z"/>
<path d="M2689 903 c-24 -62 -59 -161 -59 -167 0 -3 11 -6 25 -6 16 0 25 6 25
15 0 11 11 15 40 15 29 0 40 -4 40 -15 0 -9 9 -15 25 -15 32 0 31 7 -8 110
-26 69 -36 86 -54 88 -17 3 -26 -4 -34 -25z m50 -90 c1 -7 -8 -13 -19 -13 -17
0 -19 4 -14 28 10 43 18 49 25 22 4 -14 7 -31 8 -37z"/>
<path d="M2847 912 c-10 -10 -17 -33 -17 -50 0 -34 21 -52 63 -52 25 0 52 -22
40 -33 -10 -11 -41 -8 -62 4 -12 8 -23 9 -36 2 -17 -10 -17 -11 4 -32 15 -15
33 -21 64 -21 52 0 77 22 77 69 0 33 -13 43 -72 55 -16 4 -28 13 -28 21 0 17
35 21 45 5 8 -13 26 -13 45 0 13 9 12 13 -9 30 -30 26 -92 27 -114 2z"/>
</g>
</svg>
